# xmcd
#
# Track frame offsets: 
#        150
#        13737
#        24093
#        35414
#        46669
#        59477
#        74200
#        86987
#        97639
#        110867
#        123571
#        135645
#        148972
#        166869
#        180588
#        194784
#        206856
#        219657
#        232976
#        245260
#
# Disc length: 3418 seconds
#
# Revision: 0
# Processed by: cddbd v1.5.2PL0 Copyright (c) Steve Scherf et al.
# Submitted via: ExactAudioCopyFreeDBPlugin 1.0
#
DISCID=2c0d5814
DTITLE=Various Artist - Blues 20 essentials
DYEAR=2014
DGENRE=Blues
TTITLE0=Robert Johnson - Sweet home chicago
TTITLE1=Jimmy Reed - Ain't that loving your baby
TTITLE2=John Lee Hooker - Boom Boom
TTITLE3=Arthur Crudup - My baby left me
TTITLE4=Ivory Joe Hunter - Landlord blues
TTITLE5=Muddy Waters - Baby please don't go
TTITLE6=T. Bone Walker - Midnight blues
TTITLE7=Sonny Terry and Brownie McGhee - Stranger blues
TTITLE8=Sleepy John Estes - Jailhouse blues
TTITLE9=Blind Willy McTell - You was born to die
TTITLE10=Eddie Boyd - Five years long
TTITLE11=Howlin Wolf - The wolf is at your door
TTITLE12=James Cotton - V8 ford blues
TTITLE13=Pee Wee Crayton - Blues after hours
TTITLE14=Buddy Guy - Broken hearted blues
TTITLE15=Charles Brown - trouble blues
TTITLE16=Lonnie Johnson - Blues in G
TTITLE17=Bessie Smith - Baby won't you please come home
TTITLE18=Memphis Slim - Blues for my baby
TTITLE19=Ray Charles - Sentimental blues
EXTD=
EXTT0=
EXTT1=
EXTT2=
EXTT3=
EXTT4=
EXTT5=
EXTT6=
EXTT7=
EXTT8=
EXTT9=
EXTT10=
EXTT11=
EXTT12=
EXTT13=
EXTT14=
EXTT15=
EXTT16=
EXTT17=
EXTT18=
EXTT19=
PLAYORDER=
